<svg width="163" height="135" viewBox="0 0 163 135" fill="none" xmlns="http://www.w3.org/2000/svg">
<path d="M163.4 6.63729C163.4 6.63729 129.555 13.7275 89.8957 39.881C50.2363 66.0344 40.3051 86.4288 40.3051 86.4288M128.397 16.7875C128.397 16.7875 124.082 13.1547 120.624 11.6674C117.165 10.1801 110.142 7.72429 108.387 6.8675C106.635 6.01134 100.108 -0.313371 99.4302 1.24627C98.7528 2.80592 102.255 7.75167 104.795 8.7991C107.336 9.84653 109.104 10.1685 112.368 11.7157C115.633 13.2629 120.753 17.0977 121.695 17.3197C123.234 17.6835 123.967 16.04 122.348 15.4299C120.728 14.8199 117.588 15.8663 115.659 15.8973C113.73 15.9282 92.9649 13.4728 90.3626 12.7344C87.7604 11.9961 81.4211 13.475 89.6656 16.2304C97.9101 18.9859 110.526 17.9022 117.56 19.2265C124.593 20.5538 124.593 20.5538 124.593 20.5538M131.372 17.5322C131.339 17.631 117.419 27.2741 110.075 37.4533C102.731 47.6325 111.86 39.0724 113.451 37.5173C115.044 35.9629 119.679 32.0223 123.899 28.3054C126.318 26.1767 128.739 24.6479 130.539 23.5518M130.539 23.5518C131.272 20.9494 131.18 19.4654 132.653 19.3303C134.365 19.1752 134.195 20.7837 133.271 21.7423C132.876 22.1518 131.878 22.7329 130.539 23.5518ZM130.539 23.5518C130.005 25.4412 129.455 27.7155 128.884 29.8356C128.364 31.7672 127.826 33.568 127.27 34.8363C125.258 39.4132 115.172 51.4062 113.251 54.602C111.332 57.8015 103.29 69.6454 104.438 70.7858C105.585 71.9262 108.268 67.1881 109.318 65.6118C110.204 64.2747 124.614 44.04 130.974 32.8801M130.974 32.8801C132.136 30.8385 133.03 29.1046 133.521 27.8401C135.551 22.6325 136.43 17.9752 136.801 15.2848M130.974 32.8801C130.437 34.5515 129.574 36.8633 128.185 39.9062C124.77 47.3767 114.537 61.489 113.638 62.7778C112.739 64.0697 108.752 72.5843 115.55 64.2139C122.349 55.8405 128.126 45.7121 129.593 42.944C131.063 40.1735 132.981 36.9771 134.642 30.481C136.303 23.988 135.377 22.9012 135.377 22.9012M129.863 26.071C129.863 26.071 112.165 44.4222 109.708 49.8633C107.25 55.3007 105.172 59.7546 111.904 51.2581C118.637 42.7616 122.92 36.9049 124.317 35.4129C125.714 33.9208 128.886 29.8393 128.886 29.8393M118.928 19.4807C115.215 21.4281 105.966 26.2258 102.114 27.7606C97.2362 29.7042 90.2681 32.9554 86.6581 33.5961C83.0481 34.2368 74.8517 35.3721 84.0655 31.8977C93.2772 28.4196 101.858 24.8987 104.87 23.5814C105.93 23.119 107.091 22.3119 108.201 21.5347M108.201 21.5347C110.244 20.1054 112.103 18.7807 112.81 19.908C113.184 20.5044 111.158 21.0467 108.201 21.5347ZM108.201 21.5347C102.549 22.4706 93.4903 23.2053 91.2805 23.7321C87.9141 24.5324 77.3539 26.4972 73.6997 26.9036C70.0455 27.31 64.7851 27.965 64.7851 27.965C64.7851 27.965 55.5424 27.4529 64.7453 24.9449C73.9509 22.4374 98.1757 19.4781 98.1757 19.4781L103.277 18.2238L103.28 18.2214M101.317 48.7282C99.2213 53.6995 95.5282 62.7164 91.9798 72.611C86.6151 87.5803 87.9746 84.8932 84.6583 93.2497C81.3454 101.604 82.1515 94.7964 82.8654 92.5975C83.5787 90.4017 85.3012 83.5996 86.7257 79.2043C87.4957 76.8343 89.9611 70.355 92.5641 63.5722M101.317 48.7282C101.438 48.2747 101.567 47.7939 101.703 47.2761C104.344 37.2489 105.307 32.4175 105.307 32.4175C105.307 32.4175 101.325 34.4684 94.2287 45.2455C87.1342 56.0263 85.4036 60.5613 84.4093 62.799C83.4123 65.0362 81.1519 74.0799 86.2604 64.5412C91.3682 55.0055 95.7346 48.4982 97.7888 46.0023C98.4578 45.1892 99.37 44.0819 100.251 42.9218M101.317 48.7282C99.0775 57.0737 99.1114 55.3288 95.38 67.5089C91.4453 80.3494 96.6974 70.0905 97.5637 68.0388C98.4327 65.9877 102.131 55.2448 104.135 46.5732C105.772 39.4814 107.175 31.7429 107.63 29.154M92.5641 63.5722C92.5647 63.5691 92.5653 63.566 92.5653 63.566M92.5641 63.5722C91.0229 65.499 88.7619 68.5767 86.8832 72.1132C83.6953 78.1126 81.5244 84.6212 76.5595 93.4397C71.5946 102.258 74.0892 94.3472 74.8689 92.2744C75.6485 90.2016 83.2686 72.6524 88.274 65.1367C91.176 60.779 93.7221 57.9293 95.3517 56.3058M92.5641 63.5722C92.5641 63.5722 92.568 63.5666 92.5653 63.566M92.5653 63.566C93.5008 61.126 94.4555 58.6452 95.3517 56.3058M95.3517 56.3058L95.3523 56.3027C96.5916 53.0712 97.7255 50.1057 98.5646 47.8594C99.2788 45.949 99.8209 44.308 100.251 42.9218M100.251 42.9218C101.703 38.2121 101.831 36.4511 102.834 37.1967C103.755 37.8805 102.073 40.5152 100.251 42.9218ZM92.8803 37.9413C90.6796 38.1462 86.7827 38.5261 82.7508 39.0029L82.7482 39.0022M82.7482 39.0022C79.4108 39.3948 75.9859 39.8535 73.3576 40.3371C73.3576 40.3371 73.3576 40.3371 73.355 40.3364M82.7482 39.0022C79.0676 37.9796 71.0867 36.0302 61.15 35.1715C47.3697 33.9829 39.9935 39.7373 38.8468 40.4313C37.7008 41.1221 35.3132 43.4529 39.7158 42.0421C44.1212 40.6319 47.0005 38.5987 56.6217 38.5804C63.5831 38.5682 70.2158 39.7076 73.355 40.3364M73.355 40.3364C72.597 40.4766 71.9072 40.6203 71.3031 40.7621C64.7675 42.3003 43.823 49.9346 40.2928 51.5571C36.7625 53.1796 28.6588 59.8333 41.3595 54.9398C54.0628 50.047 60.6485 47.8015 62.8702 46.7592C63.3892 46.5189 64.7193 46.1903 66.4456 45.8087M66.4456 45.8087C69.164 45.2044 72.8599 44.4647 75.8777 43.7127M66.4456 45.8087C60.95 49.3848 50.158 56.3261 43.0189 60.4075C33.0913 66.0808 37.267 67.2041 44.9073 63.3447C50.571 60.4867 67.2132 48.8402 75.8777 43.7127M75.8777 43.7127C79.1646 42.8964 81.6529 42.0646 81.2289 41.3719C80.9542 40.9261 78.9015 41.922 75.8777 43.7127ZM81.875 45.372C81.4578 48.197 80.5981 53.3386 79.374 57.2674C77.5933 62.9795 71.1159 86.7362 68.2327 93.8465C65.3496 100.957 63.7213 103.154 66.1357 93.3377C68.5501 83.5212 73.3376 69.1669 74.4383 65.0138C75.541 60.8645 77.2266 55.5603 77.2266 55.5603C77.2266 55.5603 59.2557 85.5761 58.2539 87.3811C57.2522 89.1861 48.9006 98.7967 57.1394 84.4177C65.3762 70.0351 70.2178 61.8348 73.9506 55.5205C75.6092 52.7147 77.0035 50.143 78.0429 48.1495M56.108 66.7623C55.2973 73.3579 53.0268 91.0061 50.8906 99.4966C48.2366 110.059 44.6962 121.378 44.2769 122.569C43.8549 123.76 38.9314 132.371 42.5172 121.28C46.1031 110.189 48.9054 103.001 51.0004 90.9033C52.3812 82.9133 53.3439 74.1186 53.8392 69.0635M51.7954 71.2314C49.8249 70.5167 44.7491 69.0162 37.8163 69.4923C28.8091 70.1068 16.7662 72.1429 9.98815 73.5153C3.21008 74.8877 2.35524 77.8075 11.5019 76.0376C20.648 74.2708 30.2864 73.2683 34.5048 72.7817C38.7226 72.2982 43.5607 72.393 45.7397 72.4907C47.1434 72.5526 48.8948 72.971 49.964 73.2596C49.0299 77.4888 40.0532 110.659 35.9587 119.258C31.8615 127.856 32.9886 122.202 33.6158 119.982C34.2397 117.765 36.9185 108.93 40.222 99.7112C43.5261 90.4897 46.1393 80.1317 46.2781 78.9794C46.347 78.4128 46.2508 78.2047 45.8054 78.2554C45.3501 78.3005 44.5294 78.6166 43.1421 79.0805C41.9968 79.4636 40.1421 80.1025 37.9422 80.8973M37.9422 80.8973C34.8875 82.0001 31.1724 83.4027 27.7944 84.8418C21.9877 87.3119 14.688 90.3887 6.27281 96.753C-2.14238 103.117 1.14815 98.0956 4.93985 94.7056C8.73156 91.3156 13.0719 88.3795 20.9479 84.7199C28.8238 81.0603 39.2881 77.2834 42.8482 76.4232C44.6282 75.9931 46.503 75.7512 47.9409 75.614M37.9422 80.8973C35.5877 83.3107 31.67 87.208 28.6817 89.5809C24.109 93.2124 17.0241 97.9616 12.2212 102.292C7.42081 106.624 2.80473 113.693 2.20196 114.408C1.60182 115.125 -0.951847 121.508 4.07344 116.048C9.10196 110.586 8.6454 110.583 14.2605 104.942C18.1091 101.073 27.0749 93.9094 34.3376 88.5034M42.5974 82.6555C40.6423 83.9084 37.6704 86.0196 34.3376 88.5034M34.3376 88.5034C31.9095 91.3687 28.8861 95.3405 26.3538 99.8753C21.1887 109.131 16.2476 119.323 12.2006 129.051C8.15361 138.78 13.9162 131.474 14.8232 129.688C15.7276 127.901 18.8289 120.167 24.6073 108.635C27.826 102.219 32.8151 96.7475 36.2072 92.93M36.2072 92.93C37.0035 89.6266 37.6862 86.2438 39.5762 87.3213C40.598 87.903 38.9069 89.8907 36.2072 92.93ZM36.2072 92.93C36.0322 93.6555 35.8527 94.3767 35.6534 95.0446C34.5453 98.7649 32.5762 104.966 30.3511 109.922C28.1261 114.878 25.3741 119.493 21.4596 126.732C17.5426 133.97 21.5436 129.986 22.7649 128.449C23.9881 126.914 26.7361 123.702 32.1758 111.12C37.6155 98.5376 41.4403 86.7042 41.4403 86.7042" stroke="#3DA42D" stroke-width="2" stroke-miterlimit="10"/>
</svg>
