<svg xmlns="http://www.w3.org/2000/svg" viewBox="0 0 24 24" width="24" height="24">
  <path fill="#25D366" d="M20.52 3.48A11.81 11.81 0 0012.09 0C5.4 0 .21 5.19.21 11.87a11.793 11.793 0 001.65 6.04L0 24l6.26-1.63a11.772 11.772 0 005.83 1.48c6.69 0 11.87-5.19 11.87-11.87 0-3.17-1.23-6.15-3.44-8.36zM12.09 22c-1.93 0-3.81-.51-5.48-1.49l-.39-.23-3.71.97 1.02-3.6-.25-.38A10.11 10.11 0 012.4 11.87C2.4 6.34 6.55 2.2 12.09 2.2c2.71 0 5.26 1.06 7.17 2.97a10.075 10.075 0 013.01 7.16c0 5.54-4.51 10.04-10.18 10.04zm5.42-7.36c-.3-.15-1.78-.88-2.06-.98-.27-.1-.47-.15-.66.15-.2.29-.77.98-.95 1.18-.17.2-.35.22-.64.07a8.397 8.397 0 01-4.02-3.51c-.3-.52.3-.48.87-1.6.1-.17.05-.31-.02-.45-.07-.15-.66-1.6-.9-2.18-.24-.58-.49-.5-.66-.5h-.57c-.16 0-.42.06-.64.29-.22.23-.85.83-.85 2.02 0 1.19.87 2.35 1 2.52.13.17 1.72 2.63 4.16 3.69.58.25 1.03.4 1.38.51.58.18 1.12.16 1.54.1.47-.07 1.48-.6 1.7-1.18.21-.58.21-1.09.15-1.18-.06-.1-.27-.16-.57-.3z"/>
</svg>
